<svg xmlns="http://www.w3.org/2000/svg" width="62" height="62" viewBox="0 0 62 62"><g transform="translate(-1 -1)"><circle cx="20" cy="20" r="20" transform="translate(12 12)" fill="#ffb145"/><path d="M36,44A19.93,19.93,0,0,1,16.591,19.252a19.993,19.993,0,1,0,34.818,17.5A19.956,19.956,0,0,1,36,44Z" fill="#fca124"/><path d="M50.788,29.149a19.033,19.033,0,0,0-.387-1.9l1.938-.5a20.994,20.994,0,0,1,.426,2.1Z"/><path d="M11.961,38.3A21.006,21.006,0,0,1,51.677,24.65l-1.873.7A19.006,19.006,0,0,0,13.87,37.7Z"/><path d="M32,53A21.007,21.007,0,0,1,12.748,40.4l1.833-.8A19,19,0,0,0,51,32q0-.478-.023-.951l2-.1c.016.347.025.7.025,1.049A21.024,21.024,0,0,1,32,53Z"/><rect width="2" height="8" transform="translate(31 1)"/><rect width="2" height="8" transform="translate(31 55)"/><rect width="8" height="2" transform="translate(55 31)"/><rect width="8" height="2" transform="translate(1 31)"/><rect width="2" height="7.999" transform="matrix(0.707, -0.707, 0.707, 0.707, 47.556, 48.971)"/><rect width="2" height="8" transform="translate(9.372 10.787) rotate(-45)"/><rect width="7.999" height="2" transform="translate(9.372 53.214) rotate(-45)"/><rect width="8" height="2" transform="translate(47.556 15.029) rotate(-45)"/></g></svg>