<svg xmlns="http://www.w3.org/2000/svg" width="63.995" height="64.004" viewBox="0 0 63.995 64.004"><g transform="translate(0 0.004)"><path d="M32,1A31,31,0,1,1,1,32,31,31,0,0,1,32,1ZM59,32A27,27,0,0,0,32,5a26.572,26.572,0,0,0-5,.47,27,27,0,0,1,0,53.06A26.572,26.572,0,0,0,32,59,27,27,0,0,0,59,32Z" fill="#7d7d80"/><path d="M32,5a27,27,0,1,1,0,54,26.572,26.572,0,0,1-5-.47A27,27,0,0,0,27,5.47,26.572,26.572,0,0,1,32,5Z" fill="#ffdc78"/><path d="M49.906,46.744A1,1,0,0,1,48.4,45.468,26.993,26.993,0,0,0,28.646,5.253a1.113,1.113,0,0,0-.294,0c-.454.062-.906.132-1.352.217A26.988,26.988,0,0,1,39.573,52.486h0c-.4.339-.81.655-1.225.97A26.844,26.844,0,0,1,27,58.53c.494.094.993.17,1.5.236h0c.324.042.649.084.978.115Q30.723,59,32,59A27,27,0,0,0,57.273,41.5a1,1,0,0,0-1.759-.907,31.165,31.165,0,0,1-5.608,6.151Z" fill="#fca124"/><path d="M11.2,47.793A32.668,32.668,0,0,1,1.084,34.174,31,31,0,1,0,60.916,20.826c.05.719.084,1.442.084,2.174a30.909,30.909,0,0,1-2.1,11.207A27,27,0,0,1,32,59q-1.276,0-2.522-.118T27,58.53a26.877,26.877,0,0,0,12.573-6.044c-.03.01-.06.017-.089.027A26.95,26.95,0,0,0,27,5.47q1.221-.234,2.478-.352C28.661,5.044,27.836,5,27,5a26.572,26.572,0,0,0-5,.47A27,27,0,0,1,44,32v.271C43.841,48.961,24.285,58.155,11.2,47.793Z" fill="#666669"/><circle cx="2" cy="2" r="2" transform="translate(9 37)" fill="#666669"/><circle cx="2" cy="2" r="2" transform="translate(31 14)" fill="#666669"/><circle cx="1" cy="1" r="1" transform="translate(33 36)" fill="#666669"/><circle cx="1" cy="1" r="1" transform="translate(31 22)" fill="#666669"/><circle cx="1" cy="1" r="1" transform="translate(19 32)" fill="#666669"/><circle cx="1" cy="1" r="1" transform="translate(7 23)" fill="#666669"/><circle cx="3" cy="3" r="3" transform="translate(21 42)" fill="#666669"/><circle cx="3" cy="3" r="3" transform="translate(35 24)" fill="#666669"/><path d="M32,64A32.036,32.036,0,0,1,0,32q0-1.04.065-2.063l2,.126C2.021,30.7,2,31.35,2,32a29.968,29.968,0,1,0,.968-7.587l-1.936-.5A32,32,0,1,1,32,64Z"/><path d="M2.248,28.128.264,27.872c.089-.688.2-1.383.335-2.064l1.963.384Q2.375,27.149,2.248,28.128Z"/><path d="M57.93,30.072c-.047-.637-.118-1.286-.213-1.926l1.978-.292c.1.688.179,1.386.229,2.074Z"/><path d="M32,60a27.755,27.755,0,0,1-5.188-.487,1,1,0,0,1,0-1.966,26,26,0,0,0,0-51.094,1,1,0,0,1,0-1.966,28,28,0,0,1,32.5,21.291l-1.952.444A25.848,25.848,0,0,0,32.416,6a28.01,28.01,0,0,1,0,51.994A26.032,26.032,0,0,0,58,32h2A28.032,28.032,0,0,1,32,60Z"/></g></svg>