<svg xmlns="http://www.w3.org/2000/svg" width="63.066" height="62" viewBox="0 0 63.066 62"><g transform="translate(-1 -1)"><circle cx="20" cy="20" r="20" transform="translate(12 12)" fill="#ffb145"/><path d="M51.409,36.748c-.36.435-.743.849-1.138,1.252H46c-3,0-5-2.01-5-4.5a4.488,4.488,0,0,1,4.17-4.47A6.508,6.508,0,0,1,50,24.2a6.777,6.777,0,0,0-1.542-.2,7.179,7.179,0,0,0-6.906,5.749A5.036,5.036,0,0,0,37,34.857,5.145,5.145,0,0,0,42.455,40h5.533a19.959,19.959,0,0,1-31.4-20.748A19.991,19.991,0,1,0,50.307,40h.018a19.923,19.923,0,0,0,.757-2h-.035C51.177,37.587,51.306,37.172,51.409,36.748Z" fill="#fca124"/><path d="M45.17,29.03a6.5,6.5,0,0,1,12.35-.98A3.906,3.906,0,0,1,58,28a5,5,0,1,1,0,10H46c-3,0-5-2.01-5-4.5a4.488,4.488,0,0,1,4.17-4.47Z" fill="#a4eaff"/><path d="M49.732,32.023A4.471,4.471,0,0,1,53.081,33.8,4.92,4.92,0,0,1,53,33a4.984,4.984,0,0,1,4.519-4.952,6.5,6.5,0,0,0-12.349.982c-.017,0-.032.007-.048.008.127-.011.248-.038.378-.038A4.488,4.488,0,0,1,49.732,32.023Z" fill="#83d9f2"/><path d="M52.011,32.787a4.521,4.521,0,0,1,1.07,1.014A4.92,4.92,0,0,1,53,33a4.984,4.984,0,0,1,4.519-4.952c-.01-.024-.025-.046-.035-.07a6.427,6.427,0,0,0-.463-.891,5.991,5.991,0,0,0-5.01,5.7Z" fill="#69cae6"/><path d="M15,53a4,4,0,1,0-8,0,3,3,0,0,0,0,6h8a3,3,0,1,0,0-6Z" fill="#a4eaff"/><path d="M9.884,55.22a2.941,2.941,0,0,1,2.232,0A2.992,2.992,0,0,1,15,53a4,4,0,1,0-8,0,2.992,2.992,0,0,1,2.884,2.22Z" fill="#83d9f2"/><path d="M14.87,52.037a2.412,2.412,0,0,0-2.751,1.739,2.406,2.406,0,0,0-2.238,0A2.412,2.412,0,0,0,7.13,52.037,3.973,3.973,0,0,0,7,53a2.961,2.961,0,0,1,2.335,1.147,3.016,3.016,0,0,1,.548,1.069h0a2.941,2.941,0,0,1,2.232,0h0a3.016,3.016,0,0,1,.548-1.069A2.961,2.961,0,0,1,15,53a3.973,3.973,0,0,0-.13-.963Z" fill="#69cae6"/><path d="M46.439,44.35a19,19,0,1,1,1.432-22.8l1.67-1.1a21,21,0,1,0-1.582,25.2Z"/><path d="M50.758,41.451l-1.785-.9a19.271,19.271,0,0,1-1.1,1.9l1.67,1.1a21.115,21.115,0,0,0,1.215-2.1Z"/><rect width="2" height="8" transform="translate(31 1)"/><rect width="2" height="8" transform="translate(31 55)"/><rect width="8" height="2" transform="translate(1 31)"/><rect width="2" height="7.999" transform="translate(47.557 48.971) rotate(-45)"/><rect width="2" height="7.999" transform="matrix(0.707, -0.707, 0.707, 0.707, 9.372, 10.786)"/><rect width="7.999" height="2" transform="translate(47.556 15.029) rotate(-45)"/><path d="M58.132,27a7.5,7.5,0,0,0-13.745,1.134A5.511,5.511,0,0,0,40,33.5c0,3.136,2.579,5.5,6,5.5H58a6,6,0,0,0,.132-12ZM58,37H46c-2.317,0-4-1.472-4-3.5a3.5,3.5,0,0,1,3.246-3.469.982.982,0,0,0,.254-.061V30A3.5,3.5,0,0,1,49,33.5h2a5.508,5.508,0,0,0-4.432-5.394,5.483,5.483,0,0,1,10.024.32.992.992,0,0,0,1.022.618l.205-.025A1.354,1.354,0,0,1,58,29a4,4,0,1,1,0,8Z"/><path d="M15.92,52.106a5,5,0,0,0-9.84,0A4,4,0,0,0,7,60h8a4,4,0,0,0,.92-7.894ZM15,58H7a2,2,0,0,1,0-4,1,1,0,0,0,1-1,3,3,0,0,1,6,0,1,1,0,0,0,1,1,2,2,0,1,1,0,4Z"/></g></svg>