<svg xmlns="http://www.w3.org/2000/svg" width="64.016" height="64.004" viewBox="0 0 64.016 64.004"><g transform="translate(0.015 0.004)"><path d="M63,42c-4,7-13.18,11-22,11A26,26,0,0,1,15,27,26.362,26.362,0,0,1,39,1a26.435,26.435,0,0,0-5,15A26,26,0,0,0,60,42Z" fill="#ffdc78"/><path d="M21,25A26.254,26.254,0,0,1,36.111,1.424,26.351,26.351,0,0,0,15,27,26,26,0,0,0,41,53a29.985,29.985,0,0,0,12.409-2.7A30.249,30.249,0,0,1,47,51,26,26,0,0,1,21,25Z" fill="#ffb145"/><path d="M9.18,47a11.985,11.985,0,0,1,23.13-1.98A8.992,8.992,0,1,1,32,63L9,63A8,8,0,0,1,9,47c.06,0,.12.01.18.01Z" fill="#c2f1ff"/><path d="M25.18,63h-16c-.14,0-.28,0-.41-.01a7.993,7.993,0,0,1,0-15.98c.09,0,.18-.01.28-.01.04,0,.09.01.13.01V47a8,8,0,0,1,8,8A8,8,0,0,1,25.18,63Z" fill="#d9f6ff"/><path d="M41,54a9,9,0,0,1-9,9H25.18a8.239,8.239,0,0,0-.25-2,8.36,8.36,0,0,0-.33-1,8.008,8.008,0,0,0-7.42-5,8,8,0,0,0-8-8,11.652,11.652,0,0,1,.48-1.87,6.735,6.735,0,0,1,1.11-.12c.09,0,.18-.01.28-.01.04,0,.09.01.13.01V45a8,8,0,0,1,8,8,8,8,0,0,1,7.65,5.644A1.966,1.966,0,0,0,28.721,60H31.48a9.708,9.708,0,0,0,9.42-7.36A10.122,10.122,0,0,1,41,54Z" fill="#b2deeb"/><path d="M44,11l1.545,3.292L49,14.82l-2.5,2.562L47.09,21,44,19.292,40.91,21l.59-3.618L39,14.82l3.455-.528Z" fill="#ffdc78"/><path d="M54,23l1.545,3.292L59,26.82l-2.5,2.562L57.09,33,54,31.292,50.91,33l.59-3.618L49,26.82l3.455-.528Z" fill="#ffdc78"/><path d="M42.933,51.934l.134,2c.689-.047,1.384-.118,2.067-.209l-.268-1.983C44.228,51.825,43.577,51.891,42.933,51.934Z"/><path d="M63.865,41.5A1,1,0,0,0,63,41H60A25.028,25.028,0,0,1,35,16,25.53,25.53,0,0,1,39.819,1.574,1,1,0,0,0,38.913,0,27.368,27.368,0,0,0,14,27a27.046,27.046,0,0,0,.99,7.269l1.927-.538A25.006,25.006,0,0,1,16,27,25.354,25.354,0,0,1,36.985,2.27,27.068,27.068,0,0,0,33,16,27.03,27.03,0,0,0,60,43h1.156c-3.007,4.08-8.235,7.171-14.355,8.412l.4,1.961c7.515-1.525,13.591-5.49,16.669-10.877a1,1,0,0,0-.005-1Z"/><path d="M33.014,44.061A12.985,12.985,0,0,0,8.356,46.022,9,9,0,0,0,9,64H32a10,10,0,0,0,1.014-19.939ZM32,62H9a7,7,0,0,1,.021-14h.142A7,7,0,0,1,16,55h2a9.006,9.006,0,0,0-7.6-8.88,10.983,10.983,0,0,1,20.968-.772,1,1,0,0,0,.909.667A7.994,7.994,0,1,1,32,62Z"/><path d="M38.052,14.5a1,1,0,0,0,.232,1.016l2.148,2.2-.509,3.12a1,1,0,0,0,1.471,1.036L44,20.435l2.606,1.44a1,1,0,0,0,1.471-1.036l-.509-3.12,2.148-2.2a1,1,0,0,0-.565-1.687l-2.927-.447L44.9,10.576a1,1,0,0,0-1.81,0l-1.319,2.809-2.927.447A1,1,0,0,0,38.052,14.5Zm4.554.778a1,1,0,0,0,.754-.563L44,13.354l.64,1.363a1,1,0,0,0,.754.563l1.531.235-1.141,1.169a1,1,0,0,0-.271.859l.259,1.586-1.288-.712a1,1,0,0,0-.968,0l-1.288.712.259-1.586a1,1,0,0,0-.271-.859l-1.141-1.169Z"/><path d="M48.052,26.5a1,1,0,0,0,.232,1.016l2.148,2.2-.509,3.12a1,1,0,0,0,1.471,1.036L54,32.435l2.606,1.44a1,1,0,0,0,1.471-1.036l-.509-3.12,2.148-2.2a1,1,0,0,0-.565-1.687l-2.927-.447L54.9,22.576a1,1,0,0,0-1.81,0l-1.319,2.809-2.927.447A1,1,0,0,0,48.052,26.5Zm4.554.778a1,1,0,0,0,.754-.563L54,25.354l.64,1.363a1,1,0,0,0,.754.563l1.531.235-1.141,1.169a1,1,0,0,0-.271.859l.259,1.586-1.288-.712a1,1,0,0,0-.968,0l-1.288.712.259-1.586a1,1,0,0,0-.271-.859l-1.141-1.169Z"/></g></svg>