<svg xmlns="http://www.w3.org/2000/svg" width="57.913" height="38" viewBox="0 0 57.913 38"><g transform="translate(-3 0)"><path d="M47,37a13,13,0,1,0,.109-26,17.982,17.982,0,0,0-33.68,4.122A10.993,10.993,0,0,0,4,26c0,6.075,6,11,14,11Z" fill="#b9b9bd"/><path d="M47.11,11H47a12.991,12.991,0,0,0-11.3,6.59A12,12,0,0,0,23.05,37H18C10,37,4,32.08,4,26a11,11,0,0,1,9.43-10.88A17.985,17.985,0,0,1,47.11,11Z" fill="#9b9b9e"/><path d="M16,27a5.828,5.828,0,0,1-7,3c-2.681-.874-4.271-3.333-4.8-6.085A11.009,11.009,0,0,0,4,26c0,6.08,6,11,14,11h5.05a12,12,0,0,1,7.29-19.872C23.63,17.152,19.179,21.437,16,27Z" fill="#7d7d80"/><path d="M35.143,17.422c.2.054.4.1.591.168A12.991,12.991,0,0,1,47.034,11h.11a18,18,0,0,0-1.111-1.908C37.581,9.876,35.573,15.574,35.143,17.422Z" fill="#7d7d80"/><path d="M47,38H40V36h7a12,12,0,1,0,.1-24,1,1,0,0,1-.887-.552A16.906,16.906,0,0,0,31,2,17.091,17.091,0,0,0,14.406,15.339a1,1,0,0,1-.835.776A10.037,10.037,0,0,0,5,26c0,5.607,5.71,10,13,10h3v2H18C9.589,38,3,32.729,3,26a12.053,12.053,0,0,1,9.609-11.748A19.112,19.112,0,0,1,31,0,18.887,18.887,0,0,1,47.728,10.024,14,14,0,0,1,47,38Z"/><rect width="2" height="2" transform="translate(36 36)"/></g></svg>