<svg xmlns="http://www.w3.org/2000/svg" width="58" height="64" viewBox="0 0 58 64"><g transform="translate(-3 0)"><path d="M47,37a13,13,0,1,0,.109-26,17.982,17.982,0,0,0-33.68,4.122A10.993,10.993,0,0,0,4,26c0,6.075,6,11,14,11Z" fill="#d2d2d6"/><path d="M47.11,11H47a12.991,12.991,0,0,0-11.3,6.59A12,12,0,0,0,23.05,37H18C10,37,4,32.08,4,26a11,11,0,0,1,9.43-10.88A17.985,17.985,0,0,1,47.11,11Z" fill="#b9b9bd"/><path d="M16,27a5.828,5.828,0,0,1-7,3c-2.681-.874-4.271-3.333-4.8-6.085A11.009,11.009,0,0,0,4,26c0,6.08,6,11,14,11h5.05a12,12,0,0,1,7.29-19.872C23.63,17.152,19.179,21.437,16,27Z" fill="#9b9b9e"/><path d="M35.143,17.422c.2.054.4.1.591.168A12.991,12.991,0,0,1,47.034,11h.11a18,18,0,0,0-1.111-1.908C37.581,9.876,35.573,15.574,35.143,17.422Z" fill="#9b9b9e"/><path d="M24.381,50.4h0a2,2,0,0,1-.767-2.777l3.143-5.283a2.131,2.131,0,0,1,2.862-.744h0a2,2,0,0,1,.767,2.777l-3.143,5.283A2.131,2.131,0,0,1,24.381,50.4Z" fill="#83d9f2"/><path d="M31.714,38.077h0a2,2,0,0,1-.767-2.778l3.143-5.282a2.129,2.129,0,0,1,2.862-.744h0a2,2,0,0,1,.767,2.777l-3.143,5.282a2.13,2.13,0,0,1-2.862.745Z" fill="#83d9f2"/><path d="M17.048,62.727h0a2,2,0,0,1-.767-2.777l3.143-5.282a2.13,2.13,0,0,1,2.862-.745h0a2,2,0,0,1,.767,2.778L19.91,61.983a2.129,2.129,0,0,1-2.862.744Z" fill="#83d9f2"/><path d="M15.6,41.3h0a2.055,2.055,0,0,1-.781-2.844l3.2-5.41a2.163,2.163,0,0,1,2.914-.762h0a2.056,2.056,0,0,1,.781,2.845l-3.2,5.409A2.162,2.162,0,0,1,15.6,41.3Z" fill="#83d9f2"/><path d="M7.067,55.721h0a2.056,2.056,0,0,1-.781-2.845l3.2-5.409A2.162,2.162,0,0,1,12.4,46.7h0a2.055,2.055,0,0,1,.781,2.844l-3.2,5.41a2.163,2.163,0,0,1-2.914.762Z" fill="#83d9f2"/><path d="M43.6,41.3h0a2.055,2.055,0,0,1-.781-2.844l3.2-5.41a2.163,2.163,0,0,1,2.914-.762h0a2.056,2.056,0,0,1,.781,2.845l-3.2,5.409A2.162,2.162,0,0,1,43.6,41.3Z" fill="#83d9f2"/><path d="M35.067,55.721h0a2.056,2.056,0,0,1-.781-2.845l3.2-5.409A2.162,2.162,0,0,1,40.4,46.7h0a2.055,2.055,0,0,1,.781,2.844l-3.2,5.41a2.163,2.163,0,0,1-2.914.762Z" fill="#83d9f2"/><path d="M11.706,36.941C6.336,35.013,3,30.821,3,26a12.053,12.053,0,0,1,9.61-11.748A19.11,19.11,0,0,1,31,0,18.887,18.887,0,0,1,47.728,10.024,14.039,14.039,0,0,1,61,24a13.864,13.864,0,0,1-2.964,8.616L56.46,31.384A11.874,11.874,0,0,0,59,24a12.032,12.032,0,0,0-11.9-12,1,1,0,0,1-.887-.554A16.907,16.907,0,0,0,31,2,17.09,17.09,0,0,0,14.406,15.339a1,1,0,0,1-.835.776A10.037,10.037,0,0,0,5,26c0,3.953,2.828,7.424,7.382,9.059Z"/><path d="M54.465,35.846,53.4,34.155a12.092,12.092,0,0,0,1.912-1.5l1.38,1.445A14.087,14.087,0,0,1,54.465,35.846Z"/><path d="M25.42,51.672a3.113,3.113,0,0,1-1.528-.4,3.016,3.016,0,0,1-1.457-1.863,2.959,2.959,0,0,1,.32-2.3L25.9,41.831a3.142,3.142,0,0,1,4.211-1.105,3.016,3.016,0,0,1,1.457,1.863,2.959,2.959,0,0,1-.32,2.3L28.1,50.169a3.118,3.118,0,0,1-2.68,1.5Zm3.15-9.348a1.1,1.1,0,0,0-.954.53l-3.142,5.282a.981.981,0,0,0-.108.758,1.034,1.034,0,0,0,.5.635,1.127,1.127,0,0,0,1.514-.383l3.142-5.282a.981.981,0,0,0,.108-.758,1.034,1.034,0,0,0-.5-.635,1.146,1.146,0,0,0-.56-.147Z"/><path d="M32.753,39.347a3.118,3.118,0,0,1-1.528-.4,3.011,3.011,0,0,1-1.456-1.863,2.96,2.96,0,0,1,.319-2.3L33.23,29.5a3.144,3.144,0,0,1,4.211-1.1A3.018,3.018,0,0,1,38.9,30.264a2.96,2.96,0,0,1-.32,2.3l-3.142,5.282A3.117,3.117,0,0,1,32.753,39.347ZM35.9,30a1.1,1.1,0,0,0-.954.53L31.8,35.812a.976.976,0,0,0-.107.758,1.032,1.032,0,0,0,.5.635,1.124,1.124,0,0,0,1.514-.383l3.142-5.282a.981.981,0,0,0,.108-.758,1.036,1.036,0,0,0-.5-.635A1.139,1.139,0,0,0,35.9,30Z"/><path d="M18.087,64a3.116,3.116,0,0,1-1.527-.4h0a3.016,3.016,0,0,1-1.46-1.864,2.96,2.96,0,0,1,.32-2.3l3.142-5.282a3.138,3.138,0,0,1,4.211-1.1,3.011,3.011,0,0,1,1.456,1.863,2.96,2.96,0,0,1-.319,2.3l-3.14,5.277A3.116,3.116,0,0,1,18.087,64Zm3.149-9.348a1.1,1.1,0,0,0-.953.53l-3.142,5.282a.981.981,0,0,0-.108.758,1.036,1.036,0,0,0,.5.635h0a1.128,1.128,0,0,0,1.514-.383l3.142-5.282a.976.976,0,0,0,.107-.758,1.032,1.032,0,0,0-.5-.635,1.136,1.136,0,0,0-.56-.15Z"/><path d="M16.658,42.572a3.148,3.148,0,0,1-1.549-.4h0a3.074,3.074,0,0,1-1.471-1.89,3.016,3.016,0,0,1,.322-2.335l3.2-5.41a3.17,3.17,0,0,1,4.266-1.124A3.07,3.07,0,0,1,22.9,33.3a3.018,3.018,0,0,1-.322,2.336l-3.2,5.409A3.148,3.148,0,0,1,16.658,42.572Zm-.567-2.148a1.157,1.157,0,0,0,1.562-.4l3.2-5.41a1.036,1.036,0,0,0,.11-.8,1.084,1.084,0,0,0-.523-.665,1.158,1.158,0,0,0-1.562.4l-3.2,5.409a1.035,1.035,0,0,0-.111.8,1.081,1.081,0,0,0,.522.664Z"/><path d="M8.125,57a3.149,3.149,0,0,1-1.549-.406A3.067,3.067,0,0,1,5.1,54.7a3.018,3.018,0,0,1,.322-2.336l3.2-5.409a3.168,3.168,0,0,1,4.265-1.125,3.072,3.072,0,0,1,1.472,1.89,3.016,3.016,0,0,1-.322,2.335l-3.2,5.41A3.153,3.153,0,0,1,8.125,57Zm3.208-9.574a1.141,1.141,0,0,0-.986.552l-3.2,5.41a1.036,1.036,0,0,0-.11.8,1.084,1.084,0,0,0,.523.665h0a1.162,1.162,0,0,0,1.562-.4l3.2-5.409a1.035,1.035,0,0,0,.111-.8,1.081,1.081,0,0,0-.522-.664,1.166,1.166,0,0,0-.578-.156Z"/><path d="M44.658,42.572a3.148,3.148,0,0,1-1.549-.4h0a3.074,3.074,0,0,1-1.471-1.89,3.016,3.016,0,0,1,.322-2.335l3.2-5.41a3.169,3.169,0,0,1,4.266-1.124A3.07,3.07,0,0,1,50.9,33.3a3.018,3.018,0,0,1-.322,2.336l-3.2,5.409A3.148,3.148,0,0,1,44.658,42.572Zm-.567-2.148a1.157,1.157,0,0,0,1.562-.4l3.2-5.41a1.036,1.036,0,0,0,.11-.8,1.084,1.084,0,0,0-.523-.665,1.158,1.158,0,0,0-1.562.4l-3.2,5.409a1.035,1.035,0,0,0-.111.8,1.081,1.081,0,0,0,.522.664Z"/><path d="M36.125,57a3.149,3.149,0,0,1-1.549-.406A3.067,3.067,0,0,1,33.1,54.7a3.018,3.018,0,0,1,.322-2.336l3.2-5.409a3.168,3.168,0,0,1,4.265-1.125,3.072,3.072,0,0,1,1.472,1.89,3.016,3.016,0,0,1-.322,2.335l-3.2,5.41A3.153,3.153,0,0,1,36.125,57Zm3.208-9.574a1.141,1.141,0,0,0-.986.552l-3.2,5.41a1.036,1.036,0,0,0-.11.8,1.084,1.084,0,0,0,.523.665h0a1.162,1.162,0,0,0,1.562-.4l3.2-5.409a1.035,1.035,0,0,0,.111-.8,1.081,1.081,0,0,0-.522-.664,1.166,1.166,0,0,0-.578-.156Z"/></g></svg>