<svg xmlns="http://www.w3.org/2000/svg" width="62.989" height="63" viewBox="0 0 62.989 63"><g transform="translate(-1 -1)"><circle cx="9" cy="9" r="9" transform="translate(7 7)" fill="#ffb145"/><path d="M20.036,7.964A8.987,8.987,0,0,1,7.964,20.036,8.995,8.995,0,1,0,20.036,7.964Z" fill="#fca124"/><path d="M51.491,21.894A16.064,16.064,0,0,0,37.107,13C29.42,13,24.584,17.821,23,25A10,10,0,0,0,13,35c0,6,5.357,10,12.5,10H51.393a11.553,11.553,0,1,0,.1-23.106Z" fill="#b9b9bd"/><path d="M45,42a8.8,8.8,0,0,1-.52,3H25.5c-6.05,0-10.82-2.87-12.14-7.41a3.166,3.166,0,0,1-.12-.44c-.04-.17-.07-.34-.1-.52a5.969,5.969,0,0,1-.09-.61c-.03-.33-.05-.67-.05-1.02a10,10,0,0,1,19.89-1.43A8.9,8.9,0,0,1,36,33a9,9,0,0,1,9,9Z" fill="#d2d2d6"/><path d="M47.977,40.046A9.489,9.489,0,0,0,36.546,31.2,12.5,12.5,0,0,0,24.5,22c-.2,0-.4.021-.595.03A19.913,19.913,0,0,0,23,25a9.993,9.993,0,0,1,9.769,7.936c.044.21.09.419.121.634A8.9,8.9,0,0,1,36,33a9.1,9.1,0,0,1,.909.046A9,9,0,0,1,45,42a8.8,8.8,0,0,1-.52,3h6.913a11.584,11.584,0,0,0,11.462-9.816C57.083,42.735,51.335,41.723,47.977,40.046Z" fill="#9b9b9e"/><path d="M44.857,56.767h0a1.755,1.755,0,0,1-.627-2.377l2.57-4.52a1.7,1.7,0,0,1,2.342-.637h0a1.755,1.755,0,0,1,.627,2.377L47.2,56.13a1.7,1.7,0,0,1-2.343.637Z" fill="#83d9f2"/><path d="M24.857,56.767h0a1.755,1.755,0,0,1-.627-2.377l2.57-4.52a1.7,1.7,0,0,1,2.342-.637h0a1.755,1.755,0,0,1,.627,2.377L27.2,56.13a1.7,1.7,0,0,1-2.343.637Z" fill="#83d9f2"/><path d="M31.692,63a1.78,1.78,0,0,1-.838-.208,1.533,1.533,0,0,1-.631-2.163L36.836,49.8a1.759,1.759,0,0,1,2.31-.591,1.533,1.533,0,0,1,.631,2.163L33.164,62.2a1.718,1.718,0,0,1-1.472.8Z" fill="#83d9f2"/><path d="M24.837,22.365l-1.861-.731a17.959,17.959,0,0,1,.993-2.118l1.75.968a15.912,15.912,0,0,0-.882,1.881Z"/><path d="M51.393,46H25.5c-4.375,0-8.151-1.4-10.635-3.938A9.916,9.916,0,0,1,12,34.753,11,11,0,1,1,34,35H32a9,9,0,1,0-18-.2,7.958,7.958,0,0,0,2.292,5.866A12.853,12.853,0,0,0,25.5,44H51.393a10.553,10.553,0,1,0,.089-21.106,1,1,0,0,1-.886-.553A15,15,0,0,0,37.107,14,12.392,12.392,0,0,0,26.8,18.826l-1.6-1.209A14.322,14.322,0,0,1,37.107,12a16.978,16.978,0,0,1,15,8.914A12.552,12.552,0,0,1,51.393,46Z"/><rect width="4" height="2" transform="translate(1 15)"/><rect width="2" height="4" transform="translate(15 1)"/><rect width="4" height="2" transform="translate(23.072 7.515) rotate(-45)"/><rect width="4" height="2" transform="translate(4.686 25.899) rotate(-45)"/><path d="M45.71,58a2.674,2.674,0,0,1-1.358-.372A2.761,2.761,0,0,1,43.36,53.9l2.572-4.52a2.7,2.7,0,0,1,3.716-1,2.761,2.761,0,0,1,.992,3.72l-2.572,4.52A2.713,2.713,0,0,1,45.71,58Zm2.577-8a.734.734,0,0,0-.18.023.716.716,0,0,0-.437.341l-2.57,4.52a.753.753,0,0,0,.264,1.02.7.7,0,0,0,.53.073.716.716,0,0,0,.437-.341l2.571-4.52a.753.753,0,0,0-.264-1.02A.689.689,0,0,0,48.287,50Z"/><path d="M25.71,58a2.674,2.674,0,0,1-1.358-.372A2.761,2.761,0,0,1,23.36,53.9l2.572-4.52a2.7,2.7,0,0,1,3.716-1,2.761,2.761,0,0,1,.992,3.72l-2.572,4.52A2.713,2.713,0,0,1,25.71,58Zm2.577-8a.734.734,0,0,0-.18.023.716.716,0,0,0-.437.341l-2.57,4.52a.753.753,0,0,0,.264,1.02.7.7,0,0,0,.53.073.716.716,0,0,0,.437-.341l2.571-4.52a.753.753,0,0,0-.264-1.02.689.689,0,0,0-.351-.1Z"/><path d="M31.692,64a2.8,2.8,0,0,1-1.307-.324,2.624,2.624,0,0,1-1.3-1.608,2.479,2.479,0,0,1,.284-1.961l6.611-10.83a2.776,2.776,0,0,1,3.635-.952,2.623,2.623,0,0,1,1.3,1.607,2.479,2.479,0,0,1-.284,1.961L34.02,62.723A2.73,2.73,0,0,1,31.692,64Zm6.615-14a.718.718,0,0,0-.618.321L31.077,61.15a.49.49,0,0,0-.059.394.6.6,0,0,0,.307.366.783.783,0,0,0,.986-.23l6.612-10.83a.49.49,0,0,0,.059-.394.6.6,0,0,0-.307-.366.777.777,0,0,0-.368-.09Z"/><path d="M14.89,25.939A10,10,0,1,1,25.939,14.89l-1.988.22a8,8,0,1,0-8.841,8.841Z"/><rect width="2" height="4" transform="translate(4.687 6.101) rotate(-45)"/></g></svg>