<svg xmlns="http://www.w3.org/2000/svg" width="63.998" height="64.004" viewBox="0 0 63.998 64.004"><g transform="translate(0 0.004)"><path d="M63,42c-4,7-13.18,11-22,11A26,26,0,0,1,15,27,26.362,26.362,0,0,1,39,1a26.435,26.435,0,0,0-5,15A26,26,0,0,0,60,42Z" fill="#ffdc78"/><path d="M21,25A26.254,26.254,0,0,1,36.111,1.424,26.351,26.351,0,0,0,15,27,26,26,0,0,0,41,53a29.985,29.985,0,0,0,12.409-2.7A30.249,30.249,0,0,1,47,51,26,26,0,0,1,21,25Z" fill="#ffb145"/><path d="M9.18,40a11.985,11.985,0,0,1,23.13-1.98A8.992,8.992,0,1,1,32,56L9,56A8,8,0,0,1,9,40c.06,0,.12.01.18.01Z" fill="#b9b9bd"/><path d="M25.18,56h-16c-.14,0-.28,0-.41-.01a7.993,7.993,0,0,1,0-15.98c.09,0,.18-.01.28-.01.04,0,.09.01.13.01V40a8,8,0,0,1,8,8A8,8,0,0,1,25.18,56Z" fill="#d2d2d6"/><path d="M41,47a9,9,0,0,1-9,9H25.18a8.239,8.239,0,0,0-.25-2,8.36,8.36,0,0,0-.33-1,8.008,8.008,0,0,0-7.42-5,8,8,0,0,0-8-8,11.652,11.652,0,0,1,.48-1.87,6.734,6.734,0,0,1,1.11-.12c.09,0,.18-.01.28-.01.04,0,.09.01.13.01V38a8,8,0,0,1,8,8,8,8,0,0,1,7.65,5.644A1.966,1.966,0,0,0,28.721,53H31.48a9.708,9.708,0,0,0,9.42-7.36A10.123,10.123,0,0,1,41,47Z" fill="#9b9b9e"/><path d="M24.857,62.767h0a1.755,1.755,0,0,1-.627-2.377l2.57-4.52a1.7,1.7,0,0,1,2.342-.637h0a1.755,1.755,0,0,1,.627,2.377L27.2,62.13a1.7,1.7,0,0,1-2.343.637Z" fill="#83d9f2"/><path d="M18.857,60.767h0a1.755,1.755,0,0,1-.627-2.377l2.57-4.52a1.7,1.7,0,0,1,2.342-.637h0a1.755,1.755,0,0,1,.627,2.377L21.2,60.13a1.7,1.7,0,0,1-2.343.637Z" fill="#83d9f2"/><path d="M10.857,62.767h0a1.755,1.755,0,0,1-.627-2.377l2.57-4.52a1.7,1.7,0,0,1,2.342-.637h0a1.755,1.755,0,0,1,.627,2.377L13.2,62.13a1.7,1.7,0,0,1-2.343.637Z" fill="#83d9f2"/><path d="M29.648,54.371a2.7,2.7,0,0,0-3.716,1L23.36,59.9a2.761,2.761,0,0,0,.992,3.733A2.674,2.674,0,0,0,25.71,64a2.713,2.713,0,0,0,2.358-1.377L30.64,58.1A2.761,2.761,0,0,0,29.648,54.371ZM28.9,57.116l-2.571,4.52a.716.716,0,0,1-.437.341.7.7,0,0,1-.53-.073.753.753,0,0,1-.264-1.02l2.571-4.52a.716.716,0,0,1,.437-.341.734.734,0,0,1,.18-.023.689.689,0,0,1,.35.1A.753.753,0,0,1,28.9,57.116Z"/><path d="M23.648,52.371a2.7,2.7,0,0,0-3.716,1L17.36,57.9a2.761,2.761,0,0,0,.992,3.733A2.674,2.674,0,0,0,19.71,62a2.713,2.713,0,0,0,2.358-1.377L24.64,56.1a2.761,2.761,0,0,0-.992-3.729ZM22.9,55.116l-2.571,4.52a.716.716,0,0,1-.437.341.7.7,0,0,1-.53-.073.753.753,0,0,1-.264-1.02l2.571-4.52a.716.716,0,0,1,.437-.341.734.734,0,0,1,.18-.023.689.689,0,0,1,.35.1.753.753,0,0,1,.264,1.016Z"/><path d="M15.648,54.371a2.7,2.7,0,0,0-3.716,1L9.36,59.9a2.761,2.761,0,0,0,.992,3.733A2.674,2.674,0,0,0,11.71,64a2.713,2.713,0,0,0,2.358-1.377L16.64,58.1A2.761,2.761,0,0,0,15.648,54.371ZM14.9,57.116l-2.571,4.52a.716.716,0,0,1-.437.341.7.7,0,0,1-.53-.073.753.753,0,0,1-.264-1.02l2.571-4.52a.716.716,0,0,1,.437-.341.734.734,0,0,1,.18-.023.689.689,0,0,1,.35.1.753.753,0,0,1,.264,1.016Z"/><path d="M41.965,51.984l.07,2c.692-.024,1.386-.071,2.066-.139l-.2-1.99Q42.932,51.949,41.965,51.984Z"/><path d="M63.865,41.5A1,1,0,0,0,63,41H60A25.028,25.028,0,0,1,35,16,25.53,25.53,0,0,1,39.819,1.574,1,1,0,0,0,39.866.5a.985.985,0,0,0-.953-.5A27.368,27.368,0,0,0,14,27h2A25.354,25.354,0,0,1,36.985,2.27,27.068,27.068,0,0,0,33,16,27.03,27.03,0,0,0,60,43h1.158c-3.173,4.326-8.761,7.486-15.324,8.592l.332,1.972c7.883-1.328,14.5-5.465,17.7-11.068A1,1,0,0,0,63.865,41.5Z"/><path d="M33.014,37.061a12.98,12.98,0,0,0-21.765-3.646l1.5,1.32a10.981,10.981,0,0,1,18.614,3.613,1,1,0,0,0,.909.667A7.994,7.994,0,1,1,32,55v2a10,10,0,0,0,1.014-19.939Z"/><path d="M11.484,36.5l-1.73-1a12.933,12.933,0,0,0-1,2.168l1.886.666a11.006,11.006,0,0,1,.844-1.834Z"/><path d="M10,55H9a7,7,0,0,1,.021-14h0l.138.007h0A7,7,0,0,1,16,48h2a9.007,9.007,0,0,0-8.834-8.992h0C9.143,39.005,9.023,39,9,39A9,9,0,0,0,9,57h1Z"/></g></svg>