<svg xmlns="http://www.w3.org/2000/svg" width="62" height="62" viewBox="0 0 62 62"><g transform="translate(-1 -1)"><path d="M32.77,30.15l2.06-.98-.98,2.06L36,32l-2.15.77.98,2.06-2.06-.98L32,36l-.77-2.15-2.06.98.98-2.06L28,32l2.15-.77-.98-2.06,2.06.98L32,28Z" fill="#5ec8e6"/><path d="M34.83,34.83l-.98-2.06L36,32l-2.15-.77.98-2.06-2.06.98L32,28l-.77,2.15-2.06-.98.98,2.06L28,32l2.15.77-.98,2.06,2.06-.98L32,36l.77-2.15Zm2.74-5.06L44,32.14l-6.48,2.22,2.86,6.23-6.15-3.02L31.86,44l-2.22-6.48-6.23,2.86,3.02-6.15L20,31.86l6.48-2.22-2.86-6.23,6.15,3.02L32.14,20l2.22,6.48,6.23-2.86Z" fill="#b2deeb"/><path d="M63,31H57.763l3.878-3.231-1.282-1.538L54.637,31H49.763l3.878-3.231-1.282-1.538L46.637,31H44v.078l-5.043-1.862,2.528-5.158a.9.9,0,0,0,.058-.187l1.514-1.514,7.419-.674-.182-1.993-5.028.458L48.714,16.7l7.419-.675-.182-1.992-5.027.457,3.7-3.7L53.213,9.373l-3.7,3.7.457-5.027-1.992-.182L47.3,15.286l-3.448,3.448.458-5.028-1.993-.182-.674,7.419-1.865,1.865.056.056-4.883,2.248-1.86-5.436A1.019,1.019,0,0,0,33,19.5V17.36l4.769-5.722-1.538-1.282L33,14.237V9.363l4.769-5.722L36.231,2.359,33,6.237V1H31V6.237L27.769,2.359,26.231,3.641,31,9.363v4.874l-3.231-3.878-1.538,1.282L31,17.363V20h.078l-1.862,5.043-5.158-2.528a1,1,0,0,0-.188-.059l-1.513-1.513-.674-7.419-1.993.182.458,5.028L16.7,15.286l-.675-7.419-1.992.182.457,5.027-3.7-3.7L9.373,10.787l3.7,3.7L8.046,14.03l-.182,1.992,7.419.675,3.448,3.448L13.7,19.687l-.182,1.993,7.419.674L22.8,24.219l.056-.056,2.248,4.883-5.436,1.86A1.019,1.019,0,0,0,19.5,31H17.36l-5.722-4.769-1.282,1.538L14.237,31H9.363L3.641,26.231,2.359,27.769,6.237,31H1v2H6.237L2.359,36.231l1.282,1.538L9.363,33h4.874l-3.878,3.231,1.282,1.538L17.363,33H20v-.078l5.043,1.862-2.528,5.158a.9.9,0,0,0-.058.187l-1.514,1.514-7.419.674.182,1.993,5.028-.458L15.286,47.3l-7.419.675.182,1.992,5.027-.457-3.7,3.7,1.414,1.414,3.7-3.7-.457,5.027,1.992.182.675-7.419,3.448-3.448-.458,5.028,1.993.182.674-7.419,1.865-1.865-.056-.056,4.883-2.248,1.86,5.436A1.019,1.019,0,0,0,31,44.5v2.14l-4.769,5.722,1.538,1.282L31,49.763v4.874l-4.769,5.722,1.538,1.282L31,57.763V63h2V57.763l3.231,3.878,1.538-1.282L33,54.637V49.763l3.231,3.878,1.538-1.282L33,46.637V44h-.078l1.862-5.043,5.158,2.528a1,1,0,0,0,.188.059l1.513,1.513.674,7.419,1.993-.182-.458-5.028L47.3,48.714l.675,7.419,1.992-.182-.457-5.027,3.7,3.7,1.414-1.414-3.7-3.7,5.027.457.182-1.992L48.714,47.3l-3.448-3.448,5.028.458.182-1.993-7.419-.674-1.865-1.865-.056.056-2.248-4.883,5.436-1.86A1.019,1.019,0,0,0,44.5,33h2.14l5.722,4.769,1.282-1.538L49.763,33h4.874l5.722,4.769,1.282-1.538L57.763,33H63ZM37.191,33.417a1,1,0,0,0-.584,1.364L38.3,38.452l-3.63-1.778a1,1,0,0,0-1.379.551l-1.4,3.791-1.309-3.825a1,1,0,0,0-1.364-.584L25.548,38.3l1.778-3.628a1,1,0,0,0-.551-1.379l-3.791-1.4,3.825-1.309a1,1,0,0,0,.584-1.364L25.7,25.548l3.628,1.778a1,1,0,0,0,1.379-.551l1.4-3.791,1.309,3.825a1,1,0,0,0,1.364.584L38.452,25.7l-1.778,3.63a1,1,0,0,0,.551,1.379l3.791,1.4Z"/><path d="M36.335,31.058l-1.108-.4.5-1.061A1,1,0,0,0,34.4,28.269l-1.061.5-.4-1.108a1,1,0,0,0-1.884,0l-.395,1.108-1.061-.5a1,1,0,0,0-1.33,1.331l.5,1.061-1.108.4a1,1,0,0,0,0,1.884l1.108.4-.5,1.061a1,1,0,0,0,1.331,1.33l1.061-.5.4,1.108a1,1,0,0,0,1.884,0l.4-1.108,1.061.5a1,1,0,0,0,1.33-1.331l-.5-1.061,1.108-.4a1,1,0,0,0,0-1.884Zm-3.411,1.325a.981.981,0,0,0-.072.469.946.946,0,0,0-.469.072A1.01,1.01,0,0,0,32,33.2a1,1,0,0,0-.766-.356.838.838,0,0,0-.086,0,.981.981,0,0,0-.072-.469A1.01,1.01,0,0,0,30.8,32a1.01,1.01,0,0,0,.28-.383.981.981,0,0,0,.072-.469.959.959,0,0,0,.469-.072A1.01,1.01,0,0,0,32,30.8a1.01,1.01,0,0,0,.383.28.937.937,0,0,0,.469.072.981.981,0,0,0,.072.469A1.01,1.01,0,0,0,33.2,32,1.01,1.01,0,0,0,32.924,32.383Z"/></g></svg>