<svg xmlns="http://www.w3.org/2000/svg" width="63" height="64" viewBox="0 0 63 64"><g transform="translate(0 0)"><path d="M47,37a13,13,0,1,0,.109-26,17.982,17.982,0,0,0-33.68,4.122A10.993,10.993,0,0,0,4,26c0,6.075,6,11,14,11Z" fill="#a4eaff"/><path d="M47.11,11H47a12.991,12.991,0,0,0-11.3,6.59A12,12,0,0,0,23.05,37H18C10,37,4,32.08,4,26a11,11,0,0,1,9.43-10.88A17.985,17.985,0,0,1,47.11,11Z" fill="#83d9f2"/><path d="M16,27a5.828,5.828,0,0,1-7,3c-2.681-.874-4.271-3.333-4.8-6.085A11.009,11.009,0,0,0,4,26c0,6.08,6,11,14,11h5.05a12,12,0,0,1,7.29-19.872C23.63,17.152,19.179,21.437,16,27Z" fill="#69cae6"/><path d="M35.143,17.422c.2.054.4.1.591.168A12.991,12.991,0,0,1,47.034,11h.11a18,18,0,0,0-1.111-1.908C37.581,9.876,35.573,15.574,35.143,17.422Z" fill="#69cae6"/><path d="M18,38h1V36H18C10.71,36,5,31.607,5,26a10.037,10.037,0,0,1,8.571-9.885,1,1,0,0,0,.835-.776A17.091,17.091,0,0,1,31,2a16.906,16.906,0,0,1,15.214,9.451,1,1,0,0,0,.887.554A12,12,0,0,1,57.114,30.461L58.8,31.539A14,14,0,0,0,47.73,10.024,18.887,18.887,0,0,0,31,0,19.112,19.112,0,0,0,12.609,14.252,12.053,12.053,0,0,0,3,26C3,32.729,9.589,38,18,38Z"/><path d="M54.668,33.231l1.278,1.538a14.018,14.018,0,0,0,1.823-1.823l-1.538-1.278a12.149,12.149,0,0,1-1.563,1.563Z"/><path d="M35,43a2.021,2.021,0,0,1,2.081-2A1.94,1.94,0,0,1,39,43l2-.081A3.941,3.941,0,0,0,37,39a4,4,0,0,0,0,8H63V45H37A2,2,0,0,1,35,43Z"/><path d="M25,36a4,4,0,1,1,.081-8A3.923,3.923,0,0,1,29,31.919V34h2V31.919A6,6,0,1,0,25,38H63V36Z"/><path d="M8,57a4.022,4.022,0,0,0,4.081,4A3.941,3.941,0,0,0,16,57l-2,.081A1.94,1.94,0,0,1,12,59a2,2,0,1,1,0-4H55V53H12A4,4,0,0,0,8,57Z"/><rect width="2" height="2" transform="translate(57 53)"/><path d="M6,57V55H4v2a7.008,7.008,0,0,0,7,7h4V62H11a5.006,5.006,0,0,1-5-5Z"/><path d="M38,49c-3.367,0-7-2.294-7-6a3.927,3.927,0,0,1,.707-2.3l-1.414-1.414A5.785,5.785,0,0,0,29,43a7.635,7.635,0,0,0,3.067,6H5a3,3,0,1,1,3-3h2a5,5,0,1,0-5,5H63V49Z"/></g></svg>